<?xml version="1.0" encoding="utf-8"?>
<!-- Generator: Adobe Illustrator 19.0.0, SVG Export Plug-In . SVG Version: 6.00 Build 0)  -->
<svg version="1.1" id="layer" xmlns="http://www.w3.org/2000/svg" xmlns:xlink="http://www.w3.org/1999/xlink" x="0px" y="0px"
	 viewBox="-250 280 800 10">
<style type="text/css">
	.st0{fill:#7BD5D5;}
	.st1{fill:#117777;}
	.st2{fill:#229E60;}
</style>
<path class="st0" d="M-56.1,189.2c-8.9,0-16.2,8.7-16.2,19.4c-0.1,6.1,2.4,11.9,7,16c4.2,3.6,4.9,4.7,6,7.1
	c0.8,1.8,0.6,8.6,0.5,13.6h5.2c-0.2-5-0.2-11.8,0.5-13.6c1.1-2.4,1.6-3.6,6-7.1c4.5-4.1,7.1-9.9,7-16
	C-40.1,198-47.3,189.2-56.1,189.2z M-56.4,340.4c8.9,0,16.2-8.7,16.2-19.4c0.1-6.1-2.4-11.9-7-16c-4.2-3.6-4.9-4.7-6-7.1
	c-0.8-1.8-0.6-8.6-0.5-13.6h-5.2c0.2,5,0.2,11.8-0.5,13.6c-1.1,2.4-1.6,3.6-6,7.1c-4.4,3.6-7,9.4-7,16
	C-72.6,331.7-65.3,340.4-56.4,340.4z M-109.8,211.4c-6.3,6.3-5.2,17.6,2.4,25.2c4.3,4.4,10.2,6.7,16.3,6.5c5.7-0.5,6.8-0.2,9.2,0.8
	c1.8,0.6,6.5,5.5,10,9.2l1.8-1.8l1.8-1.8c-3.6-3.4-8.6-8.2-9.2-10c-1-2.4-1.3-3.7-0.8-9.2c0.4-6.1-1.9-12.2-6.5-16.3
	C-92.3,206.2-103.4,205.1-109.8,211.4z M-2.9,318.3c6.3-6.3,5.2-17.5-2.4-25.1c-4.3-4.4-10.2-6.7-16.3-6.5c-5.7,0.5-6.8,0.2-9.2-0.8
	c-1.8-0.6-6.5-5.5-10-9.2l-1.8,1.8l-1.8,1.8c3.6,3.4,8.6,8.2,9.2,10c1,2.4,1.3,3.7,0.8,9.2c-0.4,6.1,1.9,12.2,6.5,16.3
	C-20.3,323.6-9.2,324.6-2.9,318.3z M-131.9,264.9c0,8.9,8.7,16.2,19.4,16.2c6.1,0.1,11.9-2.4,16-7c3.6-4.4,4.7-4.9,7.1-6
	c1.8-0.8,8.6-0.6,13.6-0.6v-5.2c-5,0.2-11.8,0.2-13.6-0.5c-2.4-1.1-3.6-1.6-7.1-6c-3.6-4.4-9.4-7-16-7
	C-123.2,248.7-131.9,256-131.9,264.9z M19.3,264.9c0-8.9-8.7-16.2-19.4-16.2c-6.1-0.1-11.9,2.4-16,7c-3.6,4.4-4.7,4.9-7.1,6
	c-1.8,0.8-8.6,0.6-13.6,0.5v5.2c5-0.2,11.8-0.2,13.6,0.6c2.4,1.1,3.6,1.6,7.1,6s9.4,7,16,7C10.6,280.9,19.3,273.6,19.3,264.9z
	 M-109.8,318.3c6.3,6.3,17.6,5.2,25.1-2.4c4.4-4.3,6.7-10.2,6.5-16.3c-0.5-5.7-0.2-6.8,0.8-9.2c0.6-1.8,5.5-6.6,9.2-10l-1.8-1.8
	l-1.8-1.8c-3.6,3.7-8.4,8.6-10,9.2c-2.4,1-3.7,1.3-9.2,0.8c-6.1-0.4-12.2,1.9-16.3,6.5C-114.9,300.8-116.1,312-109.8,318.3z
	 M-2.9,211.4c-6.3-6.3-17.5-5.2-25.2,2.4c-4.4,4.3-6.7,10.2-6.5,16.3c0.3,5.7,0.2,6.8-0.8,9.2c-0.6,1.8-5.5,6.6-9.2,10l1.8,1.8
	l1.8,1.8c3.4-3.6,8.2-8.6,10-9.2c2.4-1,3.7-1.3,9.2-0.8c6.1,0.4,12.2-1.9,16.3-6.5C2.3,228.8,3.4,217.7-2.9,211.4z"/>
<path class="st0" d="M-56.2,241.4c-13,0-23.6,10.6-23.6,23.6c0,13,10.6,23.6,23.6,23.6S-32.6,278-32.6,265c0-13-10.5-23.6-23.5-23.6
	C-56.1,241.4-56.2,241.4-56.2,241.4z M-56.2,280.3c-8.6,0-15.5-6.9-15.5-15.5c0-8.6,6.9-15.5,15.5-15.5s15.5,6.9,15.5,15.5
	c0,0,0,0,0,0c0.2,8.4-6.5,15.3-14.9,15.5C-55.8,280.3-56,280.3-56.2,280.3L-56.2,280.3z"/>
<path class="st1" d="M58.2,234.9c0,11.7,10,15.6,21.5,19.1c15.4,4.5,33,9.2,33,31.3c0,19.2-16.7,28.9-35.2,28.9
	c-11.1,0-18.8-4.4-24.4-4.4c-3.8,0-6.4,1.9-9.3,4.4l-2-31.1h0.3c8.5,17.4,21.8,28.2,35.4,28.2c11.7,0,19.9-6.4,19.9-18
	c0-13.4-13.2-16.7-26.6-21c-13.8-4.3-28-9.7-28-28.8c0-17.1,14.1-28.1,33.2-28.1c10.6,0,17.7,4.3,22.8,4.3c3.8,0,6-2.3,8.1-4.3
	l0.5,27.7h-0.3c-7.5-14.3-16.7-24.8-31.1-24.8C66.3,218.3,58.2,224.1,58.2,234.9z M144.9,297.9c0,9.1,0.8,11.2,7,14.7v0.3h-33.6
	v-0.3c6.2-3.4,6.9-5.6,6.9-14.7v-37.3c0-8.8-1.2-11.5-7.7-14.9v-0.3h27.4L144.9,297.9z M134.6,211.9c6.7,0,11.8,4.9,11.8,11.4
	s-5.1,11.4-11.8,11.4c-6.7,0-11.8-4.9-11.8-11.4S127.9,211.9,134.6,211.9z M248.2,244c14,0,20.7,9.6,20.7,23.9v30
	c0,9.1,0.8,11.2,7,14.7v0.3h-33.6v-0.3c6.2-3.4,6.9-5.6,6.9-14.7v-30c0-7.7-2.1-14-10.1-14c-8.1,0-13.4,7.5-13.4,21.1v22.9
	c0,9.1,0.8,11.2,7,14.7v0.3h-33.6v-0.3c6.2-3.4,6.9-5.6,6.9-14.7v-30c0-7.7-2.1-14-10.1-14s-13.4,7.5-13.4,21.1v22.9
	c0,9.1,0.8,11.2,7,14.7v0.3h-33.6v-0.3c6.2-3.4,6.9-5.6,6.9-14.7v-37.3c0-8.8-1.2-11.5-7.7-14.9v-0.3h27.4v18.4
	c3.2-12.5,11-19.7,22.6-19.7c12.5,0,19.5,7.7,20.6,19.7C228.5,251.3,236.5,244,248.2,244z M305.5,328.2c0,9.1,0.7,11.2,6.9,14.7v0.3
	h-33.6v-0.3c6.2-3.4,7-5.6,7-14.7v-67.6c0-8.8-1.4-11.5-7.8-14.9v-0.3h27.6V263c2.7-10.4,11.2-19.1,23.6-19.1
	c16.3,0,29.6,13.2,29.6,34.4c0,21.7-13.7,35.8-30.6,35.8c-11.9,0-19.9-7.4-22.6-17.1L305.5,328.2z M305.5,272.6v13.4
	c0,13.4,8,21.7,16,21.7c10.4,0,16-10.7,16-29.3c0-16.5-5.9-26.1-16.2-26.1C313.3,252.3,305.5,260.3,305.5,272.6z M388.1,297.9
	c0,9.1,0.7,11.2,7,14.7v0.3h-33.7v-0.3c6.3-3.4,7-5.6,7-14.7v-72.7c0-8.6-1.8-11.8-8.2-14.8v-0.3h28L388.1,297.9z M431.1,315.2
	l-27.3-55c-4.4-8.8-5.8-10.7-10.3-14.5v-0.3h32.6v0.3c-3.2,1.8-4,3.4-4,6.2c0.2,2.8,0.9,5.6,2.2,8.1l15.6,32.9l13.3-31.7
	c0.9-2.1,1.4-4.3,1.4-6.6c0-4.1-2.2-7.3-6.3-8.9v-0.3h19.7v0.3c-4.8,3.6-6.9,6.4-10.7,15.5l-28,65.8c-5.1,11.8-10.7,17.6-19.6,17.6
	c-7.8,0-13.6-4.4-13.6-11.9c0-7,4.9-11,10.8-11c1.5,0,3,0.3,4.4,0.8c-2.7,1.2-4,3.3-4,6.4c-0.1,3.9,2.9,7.1,6.8,7.3
	c0.2,0,0.4,0,0.6,0c5.2,0,8.5-3.7,12.1-11.7L431.1,315.2z"/>
<path class="st2" d="M94.7,340.3c0,4.5-1.8,7.4-5.4,8.8l7.1,10.1h-7.8l-6.3-9h-4.4v9h-6.3v-28.2h10.7c4.4,0,7.5,0.7,9.4,2.2
	C93.7,334.6,94.7,337,94.7,340.3z M87.1,343.7c0.9-0.9,1.3-2.1,1.2-3.3c0.1-1.2-0.3-2.4-1.2-3.1c-1.3-0.7-2.8-1-4.2-0.8h-4.7v8.4
	h4.6C84.8,344.7,86.3,344.4,87.1,343.7z M124.9,330.9v5.6h-14v5.8h12.6v5.4h-12.6v5.9h14.5v5.6h-20.8v-28.2H124.9z M148.4,353.6
	c3,0.1,5.8-1.3,7.6-3.7l4,4.2c-5.4,6.4-15,7.2-21.5,1.8c-0.2-0.2-0.4-0.4-0.6-0.5c-5.7-5.8-5.6-15.1,0.1-20.9
	c2.8-2.8,6.6-4.3,10.5-4.2c4.5-0.1,8.7,1.9,11.6,5.3l-3.9,4.4c-1.7-2.4-4.5-3.7-7.4-3.7c-2.3,0-4.4,0.8-6.1,2.3
	c-1.7,1.6-2.6,3.9-2.5,6.3c-0.1,2.3,0.8,4.6,2.4,6.3C144.2,352.8,146.3,353.6,148.4,353.6z M169.2,330.9h6.3v28.2h-6.3V330.9z
	 M205.7,333.5c2,1.7,3,4.3,3,7.8c0,3.5-1,6-3,7.7c-2,1.6-5.1,2.4-9.3,2.4h-3.8v7.9h-6.3v-28.2h10
	C200.6,330.9,203.7,331.8,205.7,333.5z M201.1,344.6c0.8-1.1,1.2-2.4,1.1-3.7c0.1-1.3-0.4-2.6-1.5-3.5c-1.4-0.8-3-1.1-4.6-1h-3.6
	v9.5h4.2C198.9,345.8,200.3,345.4,201.1,344.6L201.1,344.6z M238,330.9v5.6h-14v5.8h12.6v5.4h-12.6v5.9h14.5v5.6h-20.8v-28.2H238z
	 M254.9,336.6c-0.6,0.5-0.9,1.2-0.9,2c0,0.8,0.4,1.6,1.1,2c1.6,0.8,3.3,1.4,5.1,1.7c2.3,0.5,4.4,1.5,6.2,3c1.6,1.5,2.4,3.6,2.2,5.8
	c0.1,2.4-1,4.7-2.8,6.2c-2.1,1.7-4.8,2.5-7.5,2.4c-4.5,0-8.8-1.8-12.1-5l3.8-4.6c3,2.7,5.9,4,8.4,4c1,0.1,1.9-0.2,2.7-0.7
	c0.6-0.5,1-1.2,1-2c0-0.8-0.4-1.6-1-2c-1.3-0.7-2.7-1.2-4.2-1.5c-2.6-0.5-5.1-1.5-7.2-3c-1.5-1.3-2.3-3.2-2.3-5.9
	c-0.1-2.4,1-4.7,2.9-6.2c2.1-1.5,4.6-2.3,7.2-2.2c1.9,0,3.8,0.3,5.7,1c1.8,0.6,3.5,1.5,4.9,2.7l-3.2,4.6c-2.1-1.7-4.8-2.7-7.6-2.8
	C256.5,335.8,255.6,336,254.9,336.6z"/>
</svg>
